<mxfile host="app.diagrams.net" modified="2024-04-30T20:48:00.709Z" agent="Mozilla/5.0 (X11; Linux x86_64) AppleWebKit/537.36 (KHTML, like Gecko) Chrome/122.0.0.0 Safari/537.36" etag="DNZvuUQECEDYxxZ_r7eD" version="24.3.1" type="github">
  <diagram name="PÃ¡gina-1" id="VM85HZ3w2gbJlVJLmHlH">
    <mxGraphModel dx="1434" dy="734" grid="1" gridSize="10" guides="1" tooltips="1" connect="1" arrows="1" fold="1" page="1" pageScale="1" pageWidth="827" pageHeight="1169" math="0" shadow="0">
      <root>
        <mxCell id="0" />
        <mxCell id="1" parent="0" />
        <mxCell id="Z9vQDlJHCYr1ekEimAw_-5" style="edgeStyle=orthogonalEdgeStyle;rounded=0;orthogonalLoop=1;jettySize=auto;html=1;exitX=0.5;exitY=0.5;exitDx=0;exitDy=0;exitPerimeter=0;entryX=0;entryY=0.5;entryDx=0;entryDy=0;" edge="1" parent="1" source="Z9vQDlJHCYr1ekEimAw_-1" target="Z9vQDlJHCYr1ekEimAw_-4">
          <mxGeometry relative="1" as="geometry" />
        </mxCell>
        <mxCell id="Z9vQDlJHCYr1ekEimAw_-10" style="edgeStyle=orthogonalEdgeStyle;rounded=0;orthogonalLoop=1;jettySize=auto;html=1;exitX=0.5;exitY=0.5;exitDx=0;exitDy=0;exitPerimeter=0;entryX=0;entryY=0.5;entryDx=0;entryDy=0;" edge="1" parent="1" source="Z9vQDlJHCYr1ekEimAw_-1" target="Z9vQDlJHCYr1ekEimAw_-6">
          <mxGeometry relative="1" as="geometry" />
        </mxCell>
        <mxCell id="Z9vQDlJHCYr1ekEimAw_-11" style="edgeStyle=orthogonalEdgeStyle;rounded=0;orthogonalLoop=1;jettySize=auto;html=1;exitX=0.5;exitY=0.5;exitDx=0;exitDy=0;exitPerimeter=0;entryX=0;entryY=0.5;entryDx=0;entryDy=0;" edge="1" parent="1" source="Z9vQDlJHCYr1ekEimAw_-1" target="Z9vQDlJHCYr1ekEimAw_-7">
          <mxGeometry relative="1" as="geometry" />
        </mxCell>
        <mxCell id="Z9vQDlJHCYr1ekEimAw_-12" style="edgeStyle=orthogonalEdgeStyle;rounded=0;orthogonalLoop=1;jettySize=auto;html=1;exitX=0.5;exitY=0.5;exitDx=0;exitDy=0;exitPerimeter=0;entryX=0;entryY=0.5;entryDx=0;entryDy=0;" edge="1" parent="1" source="Z9vQDlJHCYr1ekEimAw_-1" target="Z9vQDlJHCYr1ekEimAw_-8">
          <mxGeometry relative="1" as="geometry" />
        </mxCell>
        <mxCell id="Z9vQDlJHCYr1ekEimAw_-13" style="edgeStyle=orthogonalEdgeStyle;rounded=0;orthogonalLoop=1;jettySize=auto;html=1;exitX=0.5;exitY=0.5;exitDx=0;exitDy=0;exitPerimeter=0;entryX=0;entryY=0.5;entryDx=0;entryDy=0;" edge="1" parent="1" source="Z9vQDlJHCYr1ekEimAw_-1" target="Z9vQDlJHCYr1ekEimAw_-9">
          <mxGeometry relative="1" as="geometry" />
        </mxCell>
        <mxCell id="Z9vQDlJHCYr1ekEimAw_-1" value="Actor" style="shape=umlActor;verticalLabelPosition=bottom;verticalAlign=top;html=1;outlineConnect=0;" vertex="1" parent="1">
          <mxGeometry x="110" y="235" width="80" height="150" as="geometry" />
        </mxCell>
        <mxCell id="Z9vQDlJHCYr1ekEimAw_-4" value="Crear notas" style="rounded=1;whiteSpace=wrap;html=1;" vertex="1" parent="1">
          <mxGeometry x="390" y="120" width="120" height="60" as="geometry" />
        </mxCell>
        <mxCell id="Z9vQDlJHCYr1ekEimAw_-6" value="Listar notas" style="rounded=1;whiteSpace=wrap;html=1;" vertex="1" parent="1">
          <mxGeometry x="390" y="200" width="120" height="60" as="geometry" />
        </mxCell>
        <mxCell id="Z9vQDlJHCYr1ekEimAw_-7" value="Eliminar notas" style="rounded=1;whiteSpace=wrap;html=1;" vertex="1" parent="1">
          <mxGeometry x="390" y="280" width="120" height="60" as="geometry" />
        </mxCell>
        <mxCell id="Z9vQDlJHCYr1ekEimAw_-8" value="Actualizar notas" style="rounded=1;whiteSpace=wrap;html=1;" vertex="1" parent="1">
          <mxGeometry x="390" y="360" width="120" height="60" as="geometry" />
        </mxCell>
        <mxCell id="Z9vQDlJHCYr1ekEimAw_-9" value="Buscar notas" style="rounded=1;whiteSpace=wrap;html=1;" vertex="1" parent="1">
          <mxGeometry x="390" y="440" width="120" height="60" as="geometry" />
        </mxCell>
      </root>
    </mxGraphModel>
  </diagram>
</mxfile>
